<svg width="800" height="600" xmlns="http://www.w3.org/2000/svg">
        <rect width="100%" height="100%" fill="#F8F6FF" />
        <rect width="100%" height="100%" fill="#C4B5FD" fill-opacity="0.05" />
        <circle cx="225.0181217008736" cy="583.3688777317803" r="97.86549887163878" fill="#C7D2FE" fill-opacity="0.6714232763797239" /><rect x="703.1252917226333" y="386.99435306065226" width="79.47755686349615" height="142.70547694077874" fill="#DDD6FE" fill-opacity="0.5223551657139962" transform="rotate(344.1427093513246, 742.8640701543814, 458.34709153104166)" /><rect x="355.43504525313574" y="566.1755812333762" width="96.20110050025107" height="144.24538832848407" fill="#38BDF8" fill-opacity="0.724841626440778" transform="rotate(241.52705408248437, 403.5355955032613, 638.2982753976182)" /><rect x="451.9024512343286" y="386.65500968547246" width="119.30798158314144" height="118.13808057746074" fill="#BAE6FD" fill-opacity="0.7626903635900952" transform="rotate(328.4294094133074, 511.55644202589934, 445.72404997420284)" /><rect x="559.8705590907833" y="319.1812313267774" width="172.0445678082457" height="83.40970957992124" fill="#BAE6FD" fill-opacity="0.4055790772800461" transform="rotate(251.26133074896168, 645.8928429949062, 360.886086116738)" /><rect x="172.33318165642544" y="191.84976167633332" width="107.34344770692789" height="125.41950983193854" fill="#EC4899" fill-opacity="0.5295752779294263" transform="rotate(238.6489799583912, 226.0049055098894, 254.5595165923026)" /><rect x="107.61779072644745" y="530.3615638352663" width="108.65160777190252" height="179.33433690950795" fill="#DDD6FE" fill-opacity="0.7224342126449097" transform="rotate(15.745884479504388, 161.94359461239873, 620.0287322900203)" /><rect x="87.2892501295004" y="188.99124011498606" width="142.9891266278003" height="61.04622833388399" fill="#FCA5A5" fill-opacity="0.46259767276230673" transform="rotate(45.28335599561204, 158.78381344340056, 219.51435428192804)" /><rect x="42.852458213258515" y="360.2777941319017" width="106.94962664431279" height="80.71688652843751" fill="#DDD6FE" fill-opacity="0.39515748258713884" transform="rotate(284.1831617343357, 96.32727153541491, 400.63623739612046)" />
        <text x="50%" y="50%" dominant-baseline="middle" text-anchor="middle" font-family="Arial, sans-serif" font-weight="bold" font-size="50" fill="#333" fill-opacity="0.8">Project Medisync</text>
    </svg>